<?xml version="1.0" encoding="UTF-8" standalone="no"?>
<svg xmlns:dc="http://purl.org/dc/elements/1.1/" xmlns:cc="http://creativecommons.org/ns#" xmlns:rdf="http://www.w3.org/1999/02/22-rdf-syntax-ns#" xmlns:svg="http://www.w3.org/2000/svg" xmlns="http://www.w3.org/2000/svg" xmlns:xlink="http://www.w3.org/1999/xlink" xmlns:sodipodi="http://sodipodi.sourceforge.net/DTD/sodipodi-0.dtd" xmlns:inkscape="http://www.inkscape.org/namespaces/inkscape" height="32" id="svg2" overflow="visible" style="fill-rule:evenodd;stroke-width:0.50099999;stroke-linejoin:bevel;overflow:visible" version="1.1" viewBox="0 0 25.600005 25.600001" width="32" inkscape:version="0.48.5 r10040" sodipodi:docname="github.svg">
  <metadata id="metadata147">
    <rdf:RDF>
      <cc:Work rdf:about="">
        <dc:format>image/svg+xml</dc:format>
        <dc:type rdf:resource="http://purl.org/dc/dcmitype/StillImage"/>
        <dc:title/>
      </cc:Work>
    </rdf:RDF>
  </metadata>
  <sodipodi:namedview pagecolor="#ffffff" bordercolor="#666666" borderopacity="1" objecttolerance="10" gridtolerance="10" guidetolerance="10" inkscape:pageopacity="0" inkscape:pageshadow="2" inkscape:window-width="1024" inkscape:window-height="768" id="namedview145" showgrid="false" inkscape:zoom="14.75" inkscape:cx="-12.315385" inkscape:cy="13.016949" inkscape:window-x="0" inkscape:window-y="0" inkscape:window-maximized="0" inkscape:current-layer="layer2"/>
  <script id="script3301" xlink:href=""/>
  <script id="script3299" xlink:href=""/>
  <defs id="defs4">
    <marker id="DefaultArrow2" markerHeight="1" markerUnits="strokeWidth" markerWidth="1" orient="auto" overflow="visible" style="overflow:visible" viewBox="0 0 1 1">
      <g id="g7" transform="scale(0.00925926,0.00925926)">
        <path d="M -9,54 -9,-54 117,0 z" id="path9"/>
      </g>
    </marker>
    <marker id="DefaultArrow3" markerHeight="1" markerUnits="strokeWidth" markerWidth="1" orient="auto" overflow="visible" style="overflow:visible" viewBox="0 0 1 1">
      <g id="g12" transform="scale(0.00925926,0.00925926)">
        <path d="M -27,54 -9,0 -27,-54 135,0 z" id="path14"/>
      </g>
    </marker>
    <marker id="DefaultArrow4" markerHeight="1" markerUnits="strokeWidth" markerWidth="1" orient="auto" overflow="visible" style="overflow:visible" viewBox="0 0 1 1">
      <g id="g17" transform="scale(0.00925926,0.00925926)">
        <path d="M -9,0 -9,-45 C -9,-51.708 2.808,-56.58 9,-54 L 117,-9 C 120.916,-7.369 126,-4.242 126,0 126,4.242 120.916,7.369 117,9 L 9,54 C 2.808,56.58 -9,51.708 -9,45 z" id="path19"/>
      </g>
    </marker>
    <marker id="DefaultArrow5" markerHeight="1" markerUnits="strokeWidth" markerWidth="1" orient="auto" overflow="visible" style="overflow:visible" viewBox="0 0 1 1">
      <g id="g22" transform="scale(0.00925926,0.00925926)">
        <path d="M -54,0 C -54,29.807 -29.807,54 0,54 29.807,54 54,29.807 54,0 54,-29.807 29.807,-54 0,-54 -29.807,-54 -54,-29.807 -54,0 z" id="path24"/>
      </g>
    </marker>
    <marker id="DefaultArrow6" markerHeight="1" markerUnits="strokeWidth" markerWidth="1" orient="auto" overflow="visible" style="overflow:visible" viewBox="0 0 1 1">
      <g id="g27" transform="scale(0.00925926,0.00925926)">
        <path d="M -63,0 0,63 63,0 0,-63 z" id="path29"/>
      </g>
    </marker>
    <marker id="DefaultArrow7" markerHeight="1" markerUnits="strokeWidth" markerWidth="1" orient="auto" overflow="visible" style="overflow:visible" viewBox="0 0 1 1">
      <g id="g32" transform="scale(0.00925926,0.00925926)">
        <path d="M 18,-54 108,-54 63,0 108,54 18,54 -36,0 z" id="path34"/>
      </g>
    </marker>
    <marker id="DefaultArrow8" markerHeight="1" markerUnits="strokeWidth" markerWidth="1" orient="auto" overflow="visible" style="overflow:visible" viewBox="0 0 1 1">
      <g id="g37" transform="scale(0.00925926,0.00925926)">
        <path d="M -36,0 18,-54 54,-54 18,-18 27,-18 63,-54 99,-54 63,-18 72,-18 108,-54 144,-54 90,0 144,54 108,54 72,18 63,18 99,54 63,54 27,18 18,18 54,54 18,54 z" id="path39"/>
      </g>
    </marker>
    <marker id="DefaultArrow9" markerHeight="1" markerUnits="strokeWidth" markerWidth="1" orient="auto" overflow="visible" style="overflow:visible" viewBox="0 0 1 1">
      <g id="g42" transform="scale(0.00925926,0.00925926)">
        <path d="M 0,45 -45,0 0,-45 45,0 z M 0,63 -63,0 0,-63 63,0 z" id="path44"/>
      </g>
    </marker>
    <filter color-interpolation-filters="sRGB" id="StainedFilter">
      <feBlend id="feBlend47" in="SourceGraphic" in2="BackgroundImage" mode="multiply" result="blend"/>
      <feComposite id="feComposite49" in="blend" in2="SourceAlpha" operator="in" result="comp"/>
    </filter>
    <filter color-interpolation-filters="sRGB" id="BleachFilter">
      <feBlend id="feBlend52" in="SourceGraphic" in2="BackgroundImage" mode="screen" result="blend"/>
      <feComposite id="feComposite54" in="blend" in2="SourceAlpha" operator="in" result="comp"/>
    </filter>
    <filter color-interpolation-filters="sRGB" id="InvertTransparencyBitmapFilter">
      <feComponentTransfer id="feComponentTransfer57">
        <feFuncR amplitude="1.055" exponent=".416666666" id="feFuncR59" offset="-0.055" type="gamma"/>
        <feFuncG amplitude="1.055" exponent=".416666666" id="feFuncG61" offset="-0.055" type="gamma"/>
        <feFuncB amplitude="1.055" exponent=".416666666" id="feFuncB63" offset="-0.055" type="gamma"/>
      </feComponentTransfer>
      <feComponentTransfer id="feComponentTransfer65">
        <feFuncR id="feFuncR67" intercept="1" slope="-1" type="linear"/>
        <feFuncG id="feFuncG69" intercept="1" slope="-1" type="linear"/>
        <feFuncB id="feFuncB71" intercept="1" slope="-1" type="linear"/>
        <feFuncA id="feFuncA73" intercept="0" slope="1" type="linear"/>
      </feComponentTransfer>
      <feComponentTransfer id="feComponentTransfer75">
        <feFuncR amplitude="1" exponent="2.4" id="feFuncR77" offset="0" type="gamma"/>
        <feFuncG amplitude="1" exponent="2.4" id="feFuncG79" offset="0" type="gamma"/>
        <feFuncB amplitude="1" exponent="2.4" id="feFuncB81" offset="0" type="gamma"/>
      </feComponentTransfer>
    </filter>
    <radialGradient cx="0" cy="0" gradientTransform="matrix(0,-1,0.886054,0,172.174,122.358)" gradientUnits="userSpaceOnUse" id="RadialGradient" r="237.42799">
      <stop id="stop84" offset="0" stop-color="#473600"/>
      <stop id="stop86" offset="0.792135000228882" stop-color="#3d2f00"/>
      <stop id="stop88" offset="0.990000009536743" stop-color="#3a2c00"/>
      <stop id="stop90" offset="1" stop-color="#3a2c00"/>
    </radialGradient>
    <radialGradient cx="0" cy="0" gradientTransform="matrix(0,-1,0.886054,0,170.916,119.88)" gradientUnits="userSpaceOnUse" id="RadialGradient_1" r="237.42799">
      <stop id="stop93" offset="0" stop-color="#553e00"/>
      <stop id="stop95" offset="0.792135000228882" stop-color="#403200"/>
      <stop id="stop97" offset="0.990000009536743" stop-color="#3b2b00"/>
      <stop id="stop99" offset="1" stop-color="#3b2b00"/>
    </radialGradient>
    <radialGradient cx="0" cy="0" gradientTransform="matrix(0,-1,0.886054,0,169.66,117.403)" gradientUnits="userSpaceOnUse" id="RadialGradient_2" r="237.42799">
      <stop id="stop102" offset="0" stop-color="#634700"/>
      <stop id="stop104" offset="0.792135000228882" stop-color="#443400"/>
      <stop id="stop106" offset="0.990000009536743" stop-color="#3c2a00"/>
      <stop id="stop108" offset="1" stop-color="#3c2a00"/>
    </radialGradient>
    <radialGradient cx="0" cy="0" gradientTransform="matrix(0,-1,0.886054,0,168.403,114.925)" gradientUnits="userSpaceOnUse" id="RadialGradient_3" r="237.42799">
      <stop id="stop111" offset="0" stop-color="#724f00"/>
      <stop id="stop113" offset="0.792135000228882" stop-color="#473600"/>
      <stop id="stop115" offset="0.990000009536743" stop-color="#3c2900"/>
      <stop id="stop117" offset="1" stop-color="#3c2900"/>
    </radialGradient>
    <radialGradient cx="0" cy="0" gradientTransform="matrix(0,-1,0.886054,0,167.146,112.448)" gradientUnits="userSpaceOnUse" id="RadialGradient_4" r="237.42799">
      <stop id="stop120" offset="0" stop-color="#805800"/>
      <stop id="stop122" offset="0.792135000228882" stop-color="#4b3800"/>
      <stop id="stop124" offset="0.990000009536743" stop-color="#3d2800"/>
      <stop id="stop126" offset="1" stop-color="#3d2800"/>
    </radialGradient>
    <radialGradient cx="0" cy="0" gradientTransform="matrix(0,-1,0.886054,0,165.889,109.97)" gradientUnits="userSpaceOnUse" id="RadialGradient_5" r="237.42799">
      <stop id="stop129" offset="0" stop-color="#8e6000"/>
      <stop id="stop131" offset="0.792135000228882" stop-color="#4e3b00"/>
      <stop id="stop133" offset="0.990000009536743" stop-color="#3e2700"/>
      <stop id="stop135" offset="1" stop-color="#3e2700"/>
    </radialGradient>
    <radialGradient cx="0" cy="0" gradientTransform="matrix(0,-1,0.886054,0,164.632,107.493)" gradientUnits="userSpaceOnUse" id="RadialGradient_6" r="237.42799">
      <stop id="stop138" offset="0" stop-color="#9c6900"/>
      <stop id="stop140" offset="0.792135000228882" stop-color="#523d00"/>
      <stop id="stop142" offset="0.990000009536743" stop-color="#3f2600"/>
      <stop id="stop144" offset="1" stop-color="#3f2600"/>
    </radialGradient>
    <linearGradient gradientTransform="translate(218.601,165.399)" gradientUnits="userSpaceOnUse" id="LinearGradient" x1="0" x2="42.75" y1="0" y2="36.75">
      <stop id="stop147" offset="0" stop-color="#5c5c5c"/>
      <stop id="stop149" offset="1" stop-color="#000000"/>
    </linearGradient>
    <linearGradient gradientTransform="translate(181.122,157.792)" gradientUnits="userSpaceOnUse" id="LinearGradient_1" x1="0" x2="-9.6719999" y1="0" y2="-141.858">
      <stop id="stop152" offset="0" stop-color="#ffffff"/>
      <stop id="stop154" offset="1" stop-color="#cfd1d2"/>
    </linearGradient>
    <linearGradient gradientTransform="translate(259.851,172.899)" gradientUnits="userSpaceOnUse" id="LinearGradient_2" x1="0" x2="69.75" y1="0" y2="-189.75">
      <stop id="stop157" offset="0" stop-color="#b5b5b5"/>
      <stop id="stop159" offset="1" stop-color="#000000"/>
    </linearGradient>
    <linearGradient gradientTransform="translate(204.11,87.059)" gradientUnits="userSpaceOnUse" id="LinearGradient_3" x1="0" x2="-51.527" y1="0" y2="-64.410004">
      <stop id="stop162" offset="0" stop-color="#df9000"/>
      <stop id="stop164" offset="0.730337023735046" stop-color="#7f5200"/>
      <stop id="stop166" offset="0.990000009536743" stop-color="#3f2600"/>
      <stop id="stop168" offset="1" stop-color="#3f2600"/>
    </linearGradient>
    <linearGradient gradientTransform="translate(199.945,96.333)" gradientUnits="userSpaceOnUse" id="LinearGradient_4" x1="0" x2="19.041" y1="0" y2="85.190002">
      <stop id="stop171" offset="0" stop-color="#ba7d00"/>
      <stop id="stop173" offset="0.792135000228882" stop-color="#7f5200"/>
      <stop id="stop175" offset="0.990000009536743" stop-color="#3f2600"/>
      <stop id="stop177" offset="1" stop-color="#3f2600"/>
    </linearGradient>
    <linearGradient gradientTransform="translate(129.134,111.014)" gradientUnits="userSpaceOnUse" id="LinearGradient_5" x1="0" x2="-1.007" y1="0" y2="-63.535999">
      <stop id="stop180" offset="0" stop-color="#df9000"/>
      <stop id="stop182" offset="0.792135000228882" stop-color="#7f5200"/>
      <stop id="stop184" offset="0.990000009536743" stop-color="#3f2600"/>
      <stop id="stop186" offset="1" stop-color="#3f2600"/>
    </linearGradient>
    <linearGradient gradientTransform="translate(129.286,104.867)" gradientUnits="userSpaceOnUse" id="LinearGradient_6" x1="0" x2="15.098" y1="0" y2="58.375">
      <stop id="stop189" offset="0" stop-color="#df9000"/>
      <stop id="stop191" offset="0.792135000228882" stop-color="#7f5200"/>
      <stop id="stop193" offset="0.990000009536743" stop-color="#3f2600"/>
      <stop id="stop195" offset="1" stop-color="#3f2600"/>
    </linearGradient>
    <radialGradient cx="0" cy="0" gradientTransform="matrix(0.69735527,-0.71672563,1.2319152,1.1986212,183.351,196.899)" gradientUnits="userSpaceOnUse" id="RadialGradient_7" r="38.716999">
      <stop id="stop198" offset="0" stop-color="#6b4c29"/>
      <stop id="stop200" offset="1" stop-color="#a57348"/>
    </radialGradient>
    <radialGradient cx="0" cy="0" gradientTransform="matrix(0,-1,0.973942,0,134.346,314.993)" gradientUnits="userSpaceOnUse" id="RadialGradient_8" r="120.999">
      <stop id="stop203" offset="0" stop-color="#e0bf9e"/>
      <stop id="stop205" offset="1.68539006263018E-02" stop-color="#e0bf9e"/>
      <stop id="stop207" offset="0.202246993780136" stop-color="#e6b891"/>
      <stop id="stop209" offset="1" stop-color="#7b5d39"/>
    </radialGradient>
    <radialGradient cx="0" cy="0" gradientTransform="matrix(-0.01429027,-0.99989789,1.2061368,-0.01723778,146.601,370.899)" gradientUnits="userSpaceOnUse" id="RadialGradient_9" r="87.054001">
      <stop id="stop212" offset="0" stop-color="#9a9a9a"/>
      <stop id="stop214" offset="1" stop-color="#313131"/>
    </radialGradient>
    <linearGradient gradientTransform="translate(213.351,257.649)" gradientUnits="userSpaceOnUse" id="LinearGradient_7" x1="0" x2="-54" y1="0" y2="-87">
      <stop id="stop217" offset="0" stop-color="#484848"/>
      <stop id="stop219" offset="1" stop-color="#000000"/>
    </linearGradient>
    <linearGradient gradientTransform="translate(133.101,343.149)" gradientUnits="userSpaceOnUse" id="LinearGradient_8" x1="0" x2="10.5" y1="0" y2="-85.5">
      <stop id="stop222" offset="0" stop-color="#8d8d8d"/>
      <stop id="stop224" offset="1" stop-color="#000000"/>
    </linearGradient>
    <linearGradient gradientTransform="translate(239.24,380.259)" gradientUnits="userSpaceOnUse" id="LinearGradient_9" x1="0" x2="3.5999999" y1="0" y2="-129">
      <stop id="stop227" offset="0" stop-color="#ffffff"/>
      <stop id="stop229" offset="1" stop-color="#000000"/>
    </linearGradient>
    <linearGradient gradientTransform="translate(115.007,352.336)" gradientUnits="userSpaceOnUse" id="LinearGradient_10" x1="0" x2="108" y1="0" y2="-33.75">
      <stop id="stop232" offset="0" stop-color="#ffffff"/>
      <stop id="stop234" offset="1" stop-color="#000000"/>
    </linearGradient>
    <linearGradient gradientTransform="translate(226.61,87.059)" gradientUnits="userSpaceOnUse" id="LinearGradient_11" x1="0" x2="-51.527" y1="0" y2="-64.410004">
      <stop id="stop237" offset="0" stop-color="#df9000"/>
      <stop id="stop239" offset="0.730337023735046" stop-color="#7f5200"/>
      <stop id="stop241" offset="0.990000009536743" stop-color="#3f2600"/>
      <stop id="stop243" offset="1" stop-color="#3f2600"/>
    </linearGradient>
  </defs>
  <g inkscape:groupmode="layer" id="layer1" inkscape:label="hidden" style="display:inline">
    <g transform="matrix(0.64050449,0,0,0.64031522,0,25.600003)" id="g3480" style="overflow:visible;fill-rule:evenodd;stroke-width:0.50099998999999995;stroke-linejoin:bevel;fill:#000000;fill-opacity:1">
      <path style="fill:#000000;fill-opacity:1;fill-rule:evenodd;stroke:none" id="path3482" d="m 23.527145,-5.1997569 c -0.08993,-0.056646 -0.168194,-0.121622 -0.238136,-0.1949284 -0.274772,-0.2898936 -0.366363,-0.6597577 -0.366363,-0.9629797 0,-0.4831559 0.01665,-2.070906 0.01665,-4.040183 0,-1.244543 -0.414656,-1.95095 -0.764366,-2.25917 -0.402999,-0.358202 -0.193173,-1.027956 0.341384,-1.0896 3.014165,-0.349871 6.000021,-1.411148 6.000021,-6.654223 0,-1.449467 -0.501251,-2.619038 -1.318906,-3.532036 -0.158202,-0.178268 -0.203164,-0.429842 -0.114904,-0.649761 0.09825,-0.24491 0.456288,-1.294525 0.07161,-2.782311 l -0.09659,-0.289894 c -0.46961,0.03998 -1.478772,0.281563 -3.124074,1.424477 -0.153206,0.108293 -0.346379,0.139948 -0.52623,0.0883 -1.082435,-0.306554 -2.25313,-0.459831 -3.42216,-0.46483 -1.160704,0.005 -2.328069,0.15661 -3.413834,0.46483 -0.179851,0.05165 -0.373024,0.01999 -0.52623,-0.08664 -1.650298,-1.14458 -2.65946,-1.386158 -3.12574,-1.426143 l -0.09326,0.289894 c -0.383015,1.487786 -0.02665,2.539067 0.07161,2.787309 0.08493,0.218253 0.03997,0.468162 -0.11657,0.643097 -0.815989,0.914664 -1.315575,2.084235 -1.315575,3.533702 0,5.208088 2.955881,6.311016 5.980038,6.670884 0.532891,0.06331 0.742717,0.731398 0.339718,1.087933 -0.274772,0.243244 -0.591176,0.743061 -0.704415,1.576088 -0.02831,0.209923 -0.161533,0.391523 -0.353041,0.48149 -0.867613,0.408184 -3.433817,1.244543 -4.989193,-1.481123 -0.0067,-0.01166 -0.163198,-0.291559 -0.451292,-0.578121 l 0.294755,0.416514 c 0.2015,0.31655 0.402999,0.704741 0.594507,1.212888 -0.03664,-0.131618 0.607829,2.3208142 4.103262,1.5411006 0.388011,-0.088301 0.75937,0.2082569 0.75937,0.6064439 0.0033,1.2012255 0.02165,2.1858639 0.02165,2.5090785 0,0.3115523 -0.09992,0.6897467 -0.421317,1.0096292 L 16.49964,-5.231418 c -0.329726,0.2249174 -0.732725,0.2798972 -1.159038,0.1999266 l -0.0866,-0.023325 C 9.3039465,-7.089063 5.0241644,-12.853613 5.0241644,-19.632789 c 0,-8.45856 6.6827886,-15.347697 14.9609196,-15.347697 8.276465,0 14.974241,6.887471 14.974241,15.347697 0,6.779176 -4.278117,12.5370618 -10.224849,14.5779788 l -0.0816,0.021659 c -0.411325,0.081637 -0.802667,0.038319 -1.125732,-0.1666055 z m 0.852625,-1.0546127 0.950878,-0.3698641 c 4.915921,-2.1425465 8.379714,-7.1507073 8.379714,-13.0085553 0,-7.798803 -6.16655,-14.098156 -13.725278,-14.098156 -7.557063,0 -13.7119559,6.297687 -13.7119559,14.098156 0,5.857848 3.4637925,10.871007 8.3813789,13.0085553 l 0.947547,0.366532 0.174855,0 0.03497,-0.099963 c 0,-0.2699008 -0.01,-0.8296953 -0.01665,-1.6277355 l -0.02165,-0.1332844 C 12.462992,-7.7171657 11.313945,-9.8380534 11.0475,-10.477818 l -0.04996,-0.131619 c -0.587845,-1.537768 -1.3971738,-1.880976 -1.275608,-1.820998 l -0.086595,-0.04998 c -0.2814331,-0.198261 -0.5112424,-0.398187 -0.6527916,-0.611442 -0.426313,-0.641431 -0.021649,-1.137916 0.4146559,-1.307853 0.3214,-0.123288 0.7127417,-0.111626 0.7277297,-0.111626 1.821822,0.128286 2.71941,1.864315 2.707753,1.840991 0.75937,1.329511 1.838475,1.40615 2.65613,1.207889 l 0.436304,-0.154943 0.0766,-0.364866 c 0.06994,-0.231581 0.153206,-0.446503 0.263115,-0.664756 l -0.238135,-0.04665 c -2.965873,-0.626437 -5.810179,-2.394121 -5.810179,-7.70717 0,-1.322847 0.346379,-2.475757 0.949212,-3.450399 l 0.456288,-0.609776 -0.06328,-0.224917 c -0.186512,-0.769718 -0.32473,-2.125886 0.313074,-3.791941 0.06828,-0.174936 0.209826,-0.311552 0.389676,-0.369864 0.209826,-0.06997 1.312245,-0.311552 3.492103,0.952983 l 0.771027,0.491486 1.558706,-0.321548 c 0.629478,-0.08497 1.265617,-0.128287 1.90009,-0.133285 0.63947,0.005 1.278939,0.04832 1.910082,0.133285 l 1.560372,0.321548 0.767696,-0.48982 c 2.178193,-1.266201 3.283942,-1.022957 3.495433,-0.954649 0.178186,0.05831 0.3214,0.193262 0.388012,0.369864 0.641134,1.664389 0.502916,3.020557 0.314739,3.793607 l -0.06328,0.223251 0.456288,0.609776 c 0.602833,0.974642 0.952543,2.127552 0.952543,3.450399 0,5.348036 -2.872617,7.084065 -5.836824,7.695507 l -0.251458,0.03999 0.17319,0.328212 c 0.211491,0.534804 0.338053,1.182899 0.338053,1.939288 0,1.969277 -0.01665,3.5570271 -0.01665,4.040183 l 0.02831,0.1049615 0.17985,-0.00167 z" inkscape:connector-curvature="0"/>
      <path style="fill:#000000;fill-opacity:1;fill-rule:evenodd;stroke:none" id="path3484" d="m 0,-3.651992 0,-32.676332 c 0,-2.01426 1.6353097,-3.651992 3.6503044,-3.651992 l 32.6678936,0 c 2.013329,0 3.650304,1.637732 3.650304,3.651992 l 0,32.676332 C 39.968502,-1.6360658 38.331527,0 36.318198,0 L 3.6503044,0 C 1.6353097,0 0,-1.6360658 0,-3.651992 Z m 38.719538,0 0,-32.676332 c 0,-1.322848 -1.079104,-2.402451 -2.40134,-2.402451 l -32.6678936,0 c -1.3239014,0 -2.4013408,1.079603 -2.4013408,2.402451 l 0,32.676332 c 0,1.3245135 1.0774394,2.4024509 2.4013408,2.4024509 l 32.6678936,0 c 1.322236,0 2.40134,-1.0779374 2.40134,-2.4024509 z" inkscape:connector-curvature="0"/>
    </g>
  </g>
  <g inkscape:groupmode="layer" id="layer2" inkscape:label="visible" style="display:inline">
    <path style="fill:#ffffff;fill-opacity:1;fill-rule:evenodd;stroke:none;stroke-width:0.10000000000000001;stroke-linecap:square;stroke-linejoin:miter;stroke-miterlimit:4;stroke-dasharray:none;stroke-opacity:1" d="M 2.921875,1 C 1.8619192,1 1,1.8650286 1,2.9238281 L 1,29.076172 C 1,30.136304 1.8619192,31 2.921875,31 l 26.15625,0 C 30.136747,31 31,30.136304 31,29.076172 L 31,2.9238281 C 31,1.8650286 30.136747,1 29.078125,1 Z M 16,4.0019531 c 6.62639,0 11.990234,5.5116895 11.990234,12.2832029 0,5.426012 -3.426365,10.036385 -8.1875,11.669922 l -0.06445,0.01563 c -0.329319,0.06534 -0.643688,0.03121 -0.902343,-0.132812 -0.072,-0.04534 -0.133456,-0.09758 -0.189454,-0.15625 -0.21999,-0.232029 -0.292968,-0.526835 -0.292968,-0.769532 0,-0.386715 0.01172,-1.658177 0.01172,-3.234375 0,-0.996124 -0.331339,-1.561896 -0.611328,-1.808593 -0.322653,-0.286703 -0.154545,-0.821755 0.273438,-0.871094 2.413232,-0.280035 4.802734,-1.129646 4.802734,-5.326172 0,-1.160145 -0.400048,-2.097367 -1.054687,-2.828125 -0.126662,-0.142685 -0.162461,-0.343509 -0.0918,-0.519531 0.07866,-0.196025 0.364625,-1.035748 0.05664,-2.226563 l -0.07617,-0.2324216 c -0.375984,0.032 -1.184674,0.2258436 -2.501953,1.1406246 -0.122661,0.08668 -0.27788,0.111652 -0.421875,0.07031 C 17.873604,10.830808 16.935961,10.707126 16,10.703125 c -0.929295,0.004 -1.863125,0.126349 -2.732422,0.373047 -0.143994,0.04134 -0.299213,0.01503 -0.421875,-0.07031 C 11.524424,10.089744 10.717068,9.8972381 10.34375,9.8652344 l -0.07422,0.2324216 c -0.3066532,1.190815 -0.02203,2.031778 0.05664,2.230469 0.068,0.174688 0.03158,0.375608 -0.09375,0.515625 -0.6533058,0.732092 -1.0527345,1.66798 -1.0527345,2.828125 0,4.168522 2.3658775,5.049854 4.7871095,5.337891 0.426649,0.05067 0.596091,0.585725 0.273437,0.871093 -0.21999,0.194691 -0.47379,0.594969 -0.564453,1.261719 -0.02267,0.168021 -0.129876,0.312757 -0.283203,0.384766 -0.694637,0.326708 -2.748859,0.998013 -3.9941405,-1.183594 -0.00536,-0.0093 -0.1306713,-0.233528 -0.3613281,-0.462891 l 0.2363281,0.332032 c 0.161327,0.253364 0.3212822,0.563985 0.4746094,0.970703 -0.029335,-0.105347 0.4866061,1.858453 3.2851561,1.234375 0.310654,-0.07068 0.609375,0.165668 0.609375,0.484375 0.0026,0.961453 0.01758,1.751066 0.01758,2.009765 0,0.249365 -0.08057,0.550609 -0.33789,0.806641 l -0.111328,0.09375 c -0.263989,0.180023 -0.588369,0.224164 -0.929688,0.160156 l -0.06836,-0.01758 C 7.449095,26.326879 4.0234375,21.711168 4.0234375,16.285156 4.0234375,9.514976 9.3722762,4.0019531 16,4.0019531 Z m 6.753906,8.2402349 c -15.1692707,13.171875 -7.584635,6.585937 0,0 z" transform="matrix(0.80000015,0,0,0.80000008,0,-1.5258791e-6)" id="rect4361" inkscape:connector-curvature="0" sodipodi:nodetypes="sssssssssssccccssccscccccccccccccsccccccccccsccccsscc"/>
    <g style="overflow:visible;fill-rule:evenodd;stroke-width:0.50099999;stroke-linejoin:bevel" id="g3696" transform="matrix(0.64050449,0,0,0.64031522,0,25.600003)"/>
  </g>
</svg>