<?xml version="1.0" encoding="UTF-8" standalone="no"?>
<svg
   height="32"
   id="svg2"
   overflow="visible"
   style="fill-rule:evenodd;stroke-width:0.50099999;stroke-linejoin:bevel;overflow:visible"
   version="1.1"
   viewBox="0 0 25.600005 25.600001"
   width="32"
   inkscape:version="1.4 (e7c3feb100, 2024-10-09)"
   sodipodi:docname="website.svg"
   xmlns:inkscape="http://www.inkscape.org/namespaces/inkscape"
   xmlns:sodipodi="http://sodipodi.sourceforge.net/DTD/sodipodi-0.dtd"
   xmlns:xlink="http://www.w3.org/1999/xlink"
   xmlns="http://www.w3.org/2000/svg"
   xmlns:svg="http://www.w3.org/2000/svg"
   xmlns:rdf="http://www.w3.org/1999/02/22-rdf-syntax-ns#"
   xmlns:cc="http://creativecommons.org/ns#"
   xmlns:dc="http://purl.org/dc/elements/1.1/"
   xmlns:sketch="http://www.bohemiancoding.com/sketch/ns">
  <metadata
     id="metadata148">
    <rdf:RDF>
      <cc:Work
         rdf:about="">
        <dc:format>image/svg+xml</dc:format>
        <dc:type
           rdf:resource="http://purl.org/dc/dcmitype/StillImage" />
      </cc:Work>
    </rdf:RDF>
  </metadata>
  <sodipodi:namedview
     pagecolor="#ffffff"
     bordercolor="#666666"
     borderopacity="1"
     objecttolerance="10"
     gridtolerance="10"
     guidetolerance="10"
     inkscape:pageopacity="0"
     inkscape:pageshadow="2"
     inkscape:window-width="1706"
     inkscape:window-height="1066"
     id="namedview146"
     showgrid="false"
     inkscape:zoom="24.59375"
     inkscape:cx="16"
     inkscape:cy="15.634053"
     inkscape:window-x="0"
     inkscape:window-y="0"
     inkscape:window-maximized="0"
     inkscape:current-layer="layer1"
     inkscape:showpageshadow="2"
     inkscape:pagecheckerboard="0"
     inkscape:deskcolor="#d1d1d1" />
  <script
     id="script3301"
     xlink:href="" />
  <script
     id="script3299"
     xlink:href="" />
  <defs
     id="defs4">
    <marker
       id="DefaultArrow2"
       markerHeight="1"
       markerUnits="strokeWidth"
       markerWidth="1"
       orient="auto"
       overflow="visible"
       style="overflow:visible"
       viewBox="0 0 1 1">
      <g
         id="g7"
         transform="scale(0.00925926,0.00925926)">
        <path
           d="M -9,54 -9,-54 117,0 z"
           id="path9" />
      </g>
    </marker>
    <marker
       id="DefaultArrow3"
       markerHeight="1"
       markerUnits="strokeWidth"
       markerWidth="1"
       orient="auto"
       overflow="visible"
       style="overflow:visible"
       viewBox="0 0 1 1">
      <g
         id="g12"
         transform="scale(0.00925926,0.00925926)">
        <path
           d="M -27,54 -9,0 -27,-54 135,0 z"
           id="path14" />
      </g>
    </marker>
    <marker
       id="DefaultArrow4"
       markerHeight="1"
       markerUnits="strokeWidth"
       markerWidth="1"
       orient="auto"
       overflow="visible"
       style="overflow:visible"
       viewBox="0 0 1 1">
      <g
         id="g17"
         transform="scale(0.00925926,0.00925926)">
        <path
           d="M -9,0 -9,-45 C -9,-51.708 2.808,-56.58 9,-54 L 117,-9 C 120.916,-7.369 126,-4.242 126,0 126,4.242 120.916,7.369 117,9 L 9,54 C 2.808,56.58 -9,51.708 -9,45 z"
           id="path19" />
      </g>
    </marker>
    <marker
       id="DefaultArrow5"
       markerHeight="1"
       markerUnits="strokeWidth"
       markerWidth="1"
       orient="auto"
       overflow="visible"
       style="overflow:visible"
       viewBox="0 0 1 1">
      <g
         id="g22"
         transform="scale(0.00925926,0.00925926)">
        <path
           d="M -54,0 C -54,29.807 -29.807,54 0,54 29.807,54 54,29.807 54,0 54,-29.807 29.807,-54 0,-54 -29.807,-54 -54,-29.807 -54,0 z"
           id="path24" />
      </g>
    </marker>
    <marker
       id="DefaultArrow6"
       markerHeight="1"
       markerUnits="strokeWidth"
       markerWidth="1"
       orient="auto"
       overflow="visible"
       style="overflow:visible"
       viewBox="0 0 1 1">
      <g
         id="g27"
         transform="scale(0.00925926,0.00925926)">
        <path
           d="M -63,0 0,63 63,0 0,-63 z"
           id="path29" />
      </g>
    </marker>
    <marker
       id="DefaultArrow7"
       markerHeight="1"
       markerUnits="strokeWidth"
       markerWidth="1"
       orient="auto"
       overflow="visible"
       style="overflow:visible"
       viewBox="0 0 1 1">
      <g
         id="g32"
         transform="scale(0.00925926,0.00925926)">
        <path
           d="M 18,-54 108,-54 63,0 108,54 18,54 -36,0 z"
           id="path34" />
      </g>
    </marker>
    <marker
       id="DefaultArrow8"
       markerHeight="1"
       markerUnits="strokeWidth"
       markerWidth="1"
       orient="auto"
       overflow="visible"
       style="overflow:visible"
       viewBox="0 0 1 1">
      <g
         id="g37"
         transform="scale(0.00925926,0.00925926)">
        <path
           d="M -36,0 18,-54 54,-54 18,-18 27,-18 63,-54 99,-54 63,-18 72,-18 108,-54 144,-54 90,0 144,54 108,54 72,18 63,18 99,54 63,54 27,18 18,18 54,54 18,54 z"
           id="path39" />
      </g>
    </marker>
    <marker
       id="DefaultArrow9"
       markerHeight="1"
       markerUnits="strokeWidth"
       markerWidth="1"
       orient="auto"
       overflow="visible"
       style="overflow:visible"
       viewBox="0 0 1 1">
      <g
         id="g42"
         transform="scale(0.00925926,0.00925926)">
        <path
           d="M 0,45 -45,0 0,-45 45,0 z M 0,63 -63,0 0,-63 63,0 z"
           id="path44" />
      </g>
    </marker>
    <filter
       id="StainedFilter"
       color-interpolation-filters="sRGB">
      <feBlend
         id="feBlend47"
         in="SourceGraphic"
         in2="BackgroundImage"
         mode="multiply"
         result="blend" />
      <feComposite
         id="feComposite49"
         in="blend"
         in2="SourceAlpha"
         operator="in"
         result="comp" />
    </filter>
    <filter
       id="BleachFilter"
       color-interpolation-filters="sRGB">
      <feBlend
         id="feBlend52"
         in="SourceGraphic"
         in2="BackgroundImage"
         mode="screen"
         result="blend" />
      <feComposite
         id="feComposite54"
         in="blend"
         in2="SourceAlpha"
         operator="in"
         result="comp" />
    </filter>
    <filter
       id="InvertTransparencyBitmapFilter"
       color-interpolation-filters="sRGB">
      <feComponentTransfer
         id="feComponentTransfer57">
        <feFuncR
           amplitude="1.055"
           exponent=".416666666"
           id="feFuncR59"
           offset="-0.055"
           type="gamma" />
        <feFuncG
           amplitude="1.055"
           exponent=".416666666"
           id="feFuncG61"
           offset="-0.055"
           type="gamma" />
        <feFuncB
           amplitude="1.055"
           exponent=".416666666"
           id="feFuncB63"
           offset="-0.055"
           type="gamma" />
      </feComponentTransfer>
      <feComponentTransfer
         id="feComponentTransfer65">
        <feFuncR
           id="feFuncR67"
           intercept="1"
           slope="-1"
           type="linear" />
        <feFuncG
           id="feFuncG69"
           intercept="1"
           slope="-1"
           type="linear" />
        <feFuncB
           id="feFuncB71"
           intercept="1"
           slope="-1"
           type="linear" />
        <feFuncA
           id="feFuncA73"
           intercept="0"
           slope="1"
           type="linear" />
      </feComponentTransfer>
      <feComponentTransfer
         id="feComponentTransfer75">
        <feFuncR
           amplitude="1"
           exponent="2.4"
           id="feFuncR77"
           offset="0"
           type="gamma" />
        <feFuncG
           amplitude="1"
           exponent="2.4"
           id="feFuncG79"
           offset="0"
           type="gamma" />
        <feFuncB
           amplitude="1"
           exponent="2.4"
           id="feFuncB81"
           offset="0"
           type="gamma" />
      </feComponentTransfer>
    </filter>
    <radialGradient
       cx="0"
       cy="0"
       gradientTransform="matrix(0,-1,0.886054,0,172.174,122.358)"
       gradientUnits="userSpaceOnUse"
       id="RadialGradient"
       r="237.42799">
      <stop
         id="stop84"
         offset="0"
         stop-color="#473600" />
      <stop
         id="stop86"
         offset="0.792135000228882"
         stop-color="#3d2f00" />
      <stop
         id="stop88"
         offset="0.990000009536743"
         stop-color="#3a2c00" />
      <stop
         id="stop90"
         offset="1"
         stop-color="#3a2c00" />
    </radialGradient>
    <radialGradient
       cx="0"
       cy="0"
       gradientTransform="matrix(0,-1,0.886054,0,170.916,119.88)"
       gradientUnits="userSpaceOnUse"
       id="RadialGradient_1"
       r="237.42799">
      <stop
         id="stop93"
         offset="0"
         stop-color="#553e00" />
      <stop
         id="stop95"
         offset="0.792135000228882"
         stop-color="#403200" />
      <stop
         id="stop97"
         offset="0.990000009536743"
         stop-color="#3b2b00" />
      <stop
         id="stop99"
         offset="1"
         stop-color="#3b2b00" />
    </radialGradient>
    <radialGradient
       cx="0"
       cy="0"
       gradientTransform="matrix(0,-1,0.886054,0,169.66,117.403)"
       gradientUnits="userSpaceOnUse"
       id="RadialGradient_2"
       r="237.42799">
      <stop
         id="stop102"
         offset="0"
         stop-color="#634700" />
      <stop
         id="stop104"
         offset="0.792135000228882"
         stop-color="#443400" />
      <stop
         id="stop106"
         offset="0.990000009536743"
         stop-color="#3c2a00" />
      <stop
         id="stop108"
         offset="1"
         stop-color="#3c2a00" />
    </radialGradient>
    <radialGradient
       cx="0"
       cy="0"
       gradientTransform="matrix(0,-1,0.886054,0,168.403,114.925)"
       gradientUnits="userSpaceOnUse"
       id="RadialGradient_3"
       r="237.42799">
      <stop
         id="stop111"
         offset="0"
         stop-color="#724f00" />
      <stop
         id="stop113"
         offset="0.792135000228882"
         stop-color="#473600" />
      <stop
         id="stop115"
         offset="0.990000009536743"
         stop-color="#3c2900" />
      <stop
         id="stop117"
         offset="1"
         stop-color="#3c2900" />
    </radialGradient>
    <radialGradient
       cx="0"
       cy="0"
       gradientTransform="matrix(0,-1,0.886054,0,167.146,112.448)"
       gradientUnits="userSpaceOnUse"
       id="RadialGradient_4"
       r="237.42799">
      <stop
         id="stop120"
         offset="0"
         stop-color="#805800" />
      <stop
         id="stop122"
         offset="0.792135000228882"
         stop-color="#4b3800" />
      <stop
         id="stop124"
         offset="0.990000009536743"
         stop-color="#3d2800" />
      <stop
         id="stop126"
         offset="1"
         stop-color="#3d2800" />
    </radialGradient>
    <radialGradient
       cx="0"
       cy="0"
       gradientTransform="matrix(0,-1,0.886054,0,165.889,109.97)"
       gradientUnits="userSpaceOnUse"
       id="RadialGradient_5"
       r="237.42799">
      <stop
         id="stop129"
         offset="0"
         stop-color="#8e6000" />
      <stop
         id="stop131"
         offset="0.792135000228882"
         stop-color="#4e3b00" />
      <stop
         id="stop133"
         offset="0.990000009536743"
         stop-color="#3e2700" />
      <stop
         id="stop135"
         offset="1"
         stop-color="#3e2700" />
    </radialGradient>
    <radialGradient
       cx="0"
       cy="0"
       gradientTransform="matrix(0,-1,0.886054,0,164.632,107.493)"
       gradientUnits="userSpaceOnUse"
       id="RadialGradient_6"
       r="237.42799">
      <stop
         id="stop138"
         offset="0"
         stop-color="#9c6900" />
      <stop
         id="stop140"
         offset="0.792135000228882"
         stop-color="#523d00" />
      <stop
         id="stop142"
         offset="0.990000009536743"
         stop-color="#3f2600" />
      <stop
         id="stop144"
         offset="1"
         stop-color="#3f2600" />
    </radialGradient>
    <linearGradient
       gradientTransform="translate(218.601,165.399)"
       gradientUnits="userSpaceOnUse"
       id="LinearGradient"
       x1="0"
       x2="42.75"
       y1="0"
       y2="36.75">
      <stop
         id="stop147"
         offset="0"
         stop-color="#5c5c5c" />
      <stop
         id="stop149"
         offset="1"
         stop-color="#000000" />
    </linearGradient>
    <linearGradient
       gradientTransform="translate(181.122,157.792)"
       gradientUnits="userSpaceOnUse"
       id="LinearGradient_1"
       x1="0"
       x2="-9.6719999"
       y1="0"
       y2="-141.858">
      <stop
         id="stop152"
         offset="0"
         stop-color="#ffffff" />
      <stop
         id="stop154"
         offset="1"
         stop-color="#cfd1d2" />
    </linearGradient>
    <linearGradient
       gradientTransform="translate(259.851,172.899)"
       gradientUnits="userSpaceOnUse"
       id="LinearGradient_2"
       x1="0"
       x2="69.75"
       y1="0"
       y2="-189.75">
      <stop
         id="stop157"
         offset="0"
         stop-color="#b5b5b5" />
      <stop
         id="stop159"
         offset="1"
         stop-color="#000000" />
    </linearGradient>
    <linearGradient
       gradientTransform="translate(204.11,87.059)"
       gradientUnits="userSpaceOnUse"
       id="LinearGradient_3"
       x1="0"
       x2="-51.527"
       y1="0"
       y2="-64.410004">
      <stop
         id="stop162"
         offset="0"
         stop-color="#df9000" />
      <stop
         id="stop164"
         offset="0.730337023735046"
         stop-color="#7f5200" />
      <stop
         id="stop166"
         offset="0.990000009536743"
         stop-color="#3f2600" />
      <stop
         id="stop168"
         offset="1"
         stop-color="#3f2600" />
    </linearGradient>
    <linearGradient
       gradientTransform="translate(199.945,96.333)"
       gradientUnits="userSpaceOnUse"
       id="LinearGradient_4"
       x1="0"
       x2="19.041"
       y1="0"
       y2="85.190002">
      <stop
         id="stop171"
         offset="0"
         stop-color="#ba7d00" />
      <stop
         id="stop173"
         offset="0.792135000228882"
         stop-color="#7f5200" />
      <stop
         id="stop175"
         offset="0.990000009536743"
         stop-color="#3f2600" />
      <stop
         id="stop177"
         offset="1"
         stop-color="#3f2600" />
    </linearGradient>
    <linearGradient
       gradientTransform="translate(129.134,111.014)"
       gradientUnits="userSpaceOnUse"
       id="LinearGradient_5"
       x1="0"
       x2="-1.007"
       y1="0"
       y2="-63.535999">
      <stop
         id="stop180"
         offset="0"
         stop-color="#df9000" />
      <stop
         id="stop182"
         offset="0.792135000228882"
         stop-color="#7f5200" />
      <stop
         id="stop184"
         offset="0.990000009536743"
         stop-color="#3f2600" />
      <stop
         id="stop186"
         offset="1"
         stop-color="#3f2600" />
    </linearGradient>
    <linearGradient
       gradientTransform="translate(129.286,104.867)"
       gradientUnits="userSpaceOnUse"
       id="LinearGradient_6"
       x1="0"
       x2="15.098"
       y1="0"
       y2="58.375">
      <stop
         id="stop189"
         offset="0"
         stop-color="#df9000" />
      <stop
         id="stop191"
         offset="0.792135000228882"
         stop-color="#7f5200" />
      <stop
         id="stop193"
         offset="0.990000009536743"
         stop-color="#3f2600" />
      <stop
         id="stop195"
         offset="1"
         stop-color="#3f2600" />
    </linearGradient>
    <radialGradient
       cx="0"
       cy="0"
       gradientTransform="matrix(0.69735527,-0.71672563,1.2319152,1.1986212,183.351,196.899)"
       gradientUnits="userSpaceOnUse"
       id="RadialGradient_7"
       r="38.716999">
      <stop
         id="stop198"
         offset="0"
         stop-color="#6b4c29" />
      <stop
         id="stop200"
         offset="1"
         stop-color="#a57348" />
    </radialGradient>
    <radialGradient
       cx="0"
       cy="0"
       gradientTransform="matrix(0,-1,0.973942,0,134.346,314.993)"
       gradientUnits="userSpaceOnUse"
       id="RadialGradient_8"
       r="120.999">
      <stop
         id="stop203"
         offset="0"
         stop-color="#e0bf9e" />
      <stop
         id="stop205"
         offset="1.68539006263018E-02"
         stop-color="#e0bf9e" />
      <stop
         id="stop207"
         offset="0.202246993780136"
         stop-color="#e6b891" />
      <stop
         id="stop209"
         offset="1"
         stop-color="#7b5d39" />
    </radialGradient>
    <radialGradient
       cx="0"
       cy="0"
       gradientTransform="matrix(-0.01429027,-0.99989789,1.2061368,-0.01723778,146.601,370.899)"
       gradientUnits="userSpaceOnUse"
       id="RadialGradient_9"
       r="87.054001">
      <stop
         id="stop212"
         offset="0"
         stop-color="#9a9a9a" />
      <stop
         id="stop214"
         offset="1"
         stop-color="#313131" />
    </radialGradient>
    <linearGradient
       gradientTransform="translate(213.351,257.649)"
       gradientUnits="userSpaceOnUse"
       id="LinearGradient_7"
       x1="0"
       x2="-54"
       y1="0"
       y2="-87">
      <stop
         id="stop217"
         offset="0"
         stop-color="#484848" />
      <stop
         id="stop219"
         offset="1"
         stop-color="#000000" />
    </linearGradient>
    <linearGradient
       gradientTransform="translate(133.101,343.149)"
       gradientUnits="userSpaceOnUse"
       id="LinearGradient_8"
       x1="0"
       x2="10.5"
       y1="0"
       y2="-85.5">
      <stop
         id="stop222"
         offset="0"
         stop-color="#8d8d8d" />
      <stop
         id="stop224"
         offset="1"
         stop-color="#000000" />
    </linearGradient>
    <linearGradient
       gradientTransform="translate(239.24,380.259)"
       gradientUnits="userSpaceOnUse"
       id="LinearGradient_9"
       x1="0"
       x2="3.5999999"
       y1="0"
       y2="-129">
      <stop
         id="stop227"
         offset="0"
         stop-color="#ffffff" />
      <stop
         id="stop229"
         offset="1"
         stop-color="#000000" />
    </linearGradient>
    <linearGradient
       gradientTransform="translate(115.007,352.336)"
       gradientUnits="userSpaceOnUse"
       id="LinearGradient_10"
       x1="0"
       x2="108"
       y1="0"
       y2="-33.75">
      <stop
         id="stop232"
         offset="0"
         stop-color="#ffffff" />
      <stop
         id="stop234"
         offset="1"
         stop-color="#000000" />
    </linearGradient>
    <linearGradient
       gradientTransform="translate(226.61,87.059)"
       gradientUnits="userSpaceOnUse"
       id="LinearGradient_11"
       x1="0"
       x2="-51.527"
       y1="0"
       y2="-64.410004">
      <stop
         id="stop237"
         offset="0"
         stop-color="#df9000" />
      <stop
         id="stop239"
         offset="0.730337023735046"
         stop-color="#7f5200" />
      <stop
         id="stop241"
         offset="0.990000009536743"
         stop-color="#3f2600" />
      <stop
         id="stop243"
         offset="1"
         stop-color="#3f2600" />
    </linearGradient>
  </defs>
  <g
     inkscape:groupmode="layer"
     id="layer1"
     inkscape:label="visible"
     style="display:inline">
    <path
       id="rect4449"
       style="opacity:1;fill:#ffffff;fill-opacity:1;fill-rule:evenodd;stroke:none;stroke-width:0.1;stroke-linecap:square;stroke-linejoin:miter;stroke-miterlimit:4;stroke-dasharray:none;stroke-opacity:1"
       d="M 2.9218748 1.0000019 C 1.861919 1.0000019 0.99999993 1.8650306 0.99999993 2.9238301 L 0.99999993 29.076174 C 0.99999993 30.136306 1.861919 31.000002 2.9218748 31.000002 L 29.078123 31.000002 C 30.136745 31.000002 30.999998 30.136306 30.999998 29.076174 L 30.999998 2.9238301 C 30.999998 1.8650306 30.136745 1.0000019 29.078123 1.0000019 L 2.9218748 1.0000019 z M 15.999999 5.000002 C 22.074748 5.000002 26.999998 9.9245334 26.999998 16.000002 C 26.999998 22.075471 22.074748 27.000002 15.999999 27.000002 C 9.9252493 27.000002 4.9999996 22.075471 4.9999996 16.000002 C 4.9999996 9.9245334 9.9252493 5.000002 15.999999 5.000002 z "
       transform="matrix(0.80000015,0,0,0.80000008,0,-1.5258791e-6)" />
    <g
       transform="matrix(0.64050449,0,0,0.64031522,0,25.600003)"
       id="g4437"
       style="display:inline;overflow:visible;fill-rule:evenodd;stroke-width:0.50099999;stroke-linejoin:bevel" />
    <g
       id="Page-1"
       stroke="none"
       stroke-width="1"
       fill="none"
       fill-rule="evenodd"
       sketch:type="MSPage"
       transform="matrix(0.62500007,0,0,0.62500007,2.8000003,2.8000003)">
      <g
         id="Icon-Set"
         sketch:type="MSLayerGroup"
         transform="translate(-204,-671)"
         fill="#000000">
        <path
           d="m 231.596,694.829 c -1.915,-0.637 -3.974,-1.113 -6.141,-1.421 0.295,-1.733 0.452,-3.549 0.502,-5.408 h 8.005 c -0.179,2.521 -1.026,4.854 -2.366,6.829 z m -8.162,5.73 c 0.666,-1.609 1.211,-3.348 1.63,-5.18 1.798,0.266 3.522,0.659 5.155,1.175 -1.804,1.923 -4.146,3.338 -6.785,4.005 z m -2.463,0.392 C 220.649,700.974 220.328,701 220,701 c -0.328,0 -0.648,-0.026 -0.971,-0.049 -0.851,-1.772 -1.54,-3.744 -2.05,-5.837 0.994,-0.087 2.001,-0.138 3.021,-0.138 1.02,0 2.027,0.051 3.022,0.138 -0.511,2.093 -1.2,4.065 -2.051,5.837 z m -11.19,-4.397 c 1.633,-0.516 3.357,-0.909 5.155,-1.175 0.419,1.832 0.964,3.571 1.63,5.18 -2.639,-0.667 -4.98,-2.082 -6.785,-4.005 z m -1.377,-1.725 c -1.34,-1.975 -2.187,-4.308 -2.366,-6.829 h 8.005 c 0.05,1.859 0.207,3.675 0.502,5.408 -2.167,0.308 -4.226,0.784 -6.141,1.421 z m 0,-15.658 c 1.915,0.637 3.974,1.114 6.141,1.421 -0.295,1.733 -0.452,3.549 -0.502,5.408 h -8.005 c 0.179,-2.521 1.026,-4.854 2.366,-6.829 z m 8.162,-5.73 c -0.666,1.609 -1.211,3.348 -1.63,5.18 -1.798,-0.265 -3.522,-0.659 -5.155,-1.175 1.805,-1.923 4.146,-3.338 6.785,-4.005 z m 2.463,-0.392 C 219.352,673.027 219.672,673 220,673 c 0.328,0 0.649,0.027 0.971,0.049 0.851,1.772 1.54,3.745 2.051,5.837 -0.995,0.087 -2.002,0.138 -3.022,0.138 -1.02,0 -2.027,-0.051 -3.021,-0.138 0.51,-2.092 1.199,-4.065 2.05,-5.837 z M 223.954,688 c -0.054,1.761 -0.214,3.493 -0.515,5.156 C 222.313,693.058 221.168,693 220,693 c -1.168,0 -2.313,0.058 -3.438,0.156 -0.302,-1.663 -0.462,-3.395 -0.515,-5.156 z m -7.907,-2 c 0.053,-1.761 0.213,-3.493 0.515,-5.156 1.125,0.098 2.27,0.156 3.438,0.156 1.168,0 2.313,-0.058 3.438,-0.156 0.302,1.663 0.462,3.395 0.516,5.156 z m 14.172,-8.554 c -1.633,0.516 -3.357,0.91 -5.155,1.175 -0.419,-1.832 -0.964,-3.571 -1.63,-5.18 2.639,0.667 4.981,2.082 6.785,4.005 z m 1.377,1.725 c 1.34,1.975 2.187,4.308 2.366,6.829 h -8.005 c -0.05,-1.859 -0.207,-3.675 -0.502,-5.408 2.167,-0.307 4.226,-0.784 6.141,-1.421 z M 220,671.32 c -8.836,0 -15.68,6.843 -15.68,15.68 0,8.837 6.844,15.68 15.68,15.68 8.836,0 15.68,-6.843 15.68,-15.68 0,-8.837 -6.844,-15.68 -15.68,-15.68 z"
           id="globe"
           sketch:type="MSShapeGroup"
           sodipodi:nodetypes="ccccccccccsccscccccccccccccccccccccsccsccccscccccsccccccccccccsssss" />
      </g>
    </g>
    <g
       id="g8"
       stroke="none"
       stroke-width="1"
       fill="none"
       fill-rule="evenodd"
       sketch:type="MSPage"
       transform="matrix(0.62500007,0,0,0.62500007,2.8000003,2.8000003)">
      <g
         id="g6"
         sketch:type="MSLayerGroup"
         transform="translate(-204,-671)"
         fill="#000000" />
    </g>
  </g>
  <g
     inkscape:label="hidden"
     id="g4431"
     inkscape:groupmode="layer"
     style="display:inline">
    <g
       style="overflow:visible;fill-rule:evenodd;stroke-width:0.50099999;stroke-linejoin:bevel"
       id="g3279"
       transform="matrix(0.64050449,0,0,0.64031522,0,25.600003)">
      <path
         d="m 0,-3.651992 0,-32.676332 c 0,-2.01426 1.6353097,-3.651992 3.6503044,-3.651992 l 32.6678936,0 c 2.013329,0 3.650304,1.637732 3.650304,3.651992 l 0,32.676332 C 39.968502,-1.6360658 38.331527,0 36.318198,0 L 3.6503044,0 C 1.6353097,0 0,-1.6360658 0,-3.651992 Z m 38.719538,0 0,-32.676332 c 0,-1.322848 -1.079104,-2.402451 -2.40134,-2.402451 l -32.6678936,0 c -1.3239014,0 -2.4013408,1.079603 -2.4013408,2.402451 l 0,32.676332 c 0,1.3245135 1.0774394,2.4024509 2.4013408,2.4024509 l 32.6678936,0 c 1.322236,0 2.40134,-1.0779374 2.40134,-2.4024509 z"
         id="path3285"
         style="fill:#000000;fill-opacity:1;fill-rule:evenodd;stroke:none"
         inkscape:connector-curvature="0" />
    </g>
  </g>
</svg>
